# xmcd
#
# Track frame offsets: 
#        150
#        18974
#        36098
#        52383
#        74958
#        90213
#        110137
#        129485
#        145532
#
# Disc length: 2137 seconds
#
# Revision: 1
# Processed by: cddbd v1.5.2PL0 Copyright (c) Steve Scherf et al.
# Submitted via: ExactAudioCopy v1.0b1
#
DISCID=80085709
DTITLE=Jean Terrell - I Had to Fall in Love
DYEAR=1978
DGENRE=Soul
TTITLE0=Don't Stop Reading for the Top
TTITLE1=No One Like My Baby
TTITLE2=Rising Cost of Love
TTITLE3=Change Up
TTITLE4=How Can You (Live Without Love)
TTITLE5=I Had to Fall in Love
TTITLE6=That's The Way Love Grows
TTITLE7=You've Been So Good for Me
TTITLE8=No Limit
EXTD=
EXTT0=
EXTT1=
EXTT2=
EXTT3=
EXTT4=
EXTT5=
EXTT6=
EXTT7=
EXTT8=
PLAYORDER=
